<svg width="120" height="120" viewBox="0 0 120 120" fill="none" xmlns="http://www.w3.org/2000/svg">
<circle cx="60" cy="60" r="60" fill="#14213D"/>
<path d="M44.6836 38.5C44.2892 38.5052 43.9127 38.6655 43.6356 38.9462C43.3585 39.227 43.2031 39.6055 43.2031 40C43.2031 40 43.1238 44.3343 45.2207 48.3574C43.5644 50.5687 42.4868 53.1998 42.0195 56.0215C40.2622 56.9052 38.9844 58.6305 38.9844 60.7148C38.9844 62.8886 40.3677 64.6696 42.25 65.5098C44.2044 73.2668 51.4108 79 59.998 79C68.5852 79 75.7907 73.2669 77.7441 65.5098C79.627 64.6696 81.0117 62.8886 81.0117 60.7148C81.0117 58.6538 79.7622 56.9445 78.0371 56.0508C76.7389 48.0602 69.9275 41.8718 61.5098 41.2031C61.3618 41.1575 61.2076 41.1351 61.0527 41.1367C60.8208 41.1367 60.6043 41.1501 60.377 41.1543C60.2498 41.1518 60.1258 41.1367 59.998 41.1367C59.8851 41.1358 59.7724 41.1475 59.6621 41.1719C54.6843 41.3409 50.6917 42.1877 45.5352 38.752C45.2832 38.584 44.9864 38.4961 44.6836 38.5ZM46.6406 42.5898C51.7048 44.8584 56.2037 44.2225 60.4023 44.1543C65.0401 44.2695 69.1347 46.3395 71.8555 49.5234C70.471 50.0583 68.056 50.9143 65.0879 51.5625C60.5725 52.5486 55.1533 52.8554 51.5059 50.8301C50.2046 50.1077 49.2602 49.1572 48.5625 48.1191C48.4968 47.7997 48.3288 47.5103 48.084 47.2949C47.2218 45.6846 46.8442 43.9617 46.6406 42.5898ZM47.0254 50.998C47.8474 51.93 48.8343 52.7789 50.0488 53.4531C54.8424 56.1148 60.8877 55.5493 65.7285 54.4922C69.3318 53.7053 72.3177 52.5857 73.6152 52.0625C74.4668 53.6387 75.0273 55.3804 75.2305 57.2207C75.2622 57.5102 75.3775 57.7843 75.5624 58.0094C75.7473 58.2345 75.9936 58.4009 76.2715 58.4883C77.3135 58.8165 78.0117 59.6833 78.0117 60.7148C78.0117 61.7954 77.2507 62.6952 76.1367 62.9785C75.8626 63.0481 75.6137 63.1938 75.4188 63.3987C75.2239 63.6036 75.0909 63.8595 75.0352 64.1367C73.6839 70.8586 67.5056 76 59.998 76C52.4905 76 46.3112 70.8587 44.959 64.1367C44.9034 63.8597 44.7707 63.604 44.5761 63.3991C44.3816 63.1942 44.1331 63.0484 43.8594 62.9785C42.7466 62.6953 41.9844 61.7954 41.9844 60.7148C41.9844 59.6828 42.6816 58.8166 43.7246 58.4883C44.0025 58.4009 44.2488 58.2345 44.4337 58.0094C44.6186 57.7843 44.7339 57.5102 44.7656 57.2207C45.0162 54.9511 45.8126 52.8405 47.0254 50.998ZM53.5273 57C52.8787 57.0101 52.26 57.2748 51.8049 57.737C51.3498 58.1993 51.0947 58.822 51.0947 59.4707C51.0947 60.1194 51.3498 60.7421 51.8049 61.2044C52.26 61.6666 52.8787 61.9313 53.5273 61.9414C54.176 61.9313 54.7946 61.6666 55.2498 61.2044C55.7049 60.7421 55.96 60.1194 55.96 59.4707C55.96 58.822 55.7049 58.1993 55.2498 57.737C54.7946 57.2748 54.176 57.0101 53.5273 57ZM66.498 57C65.835 57 65.1991 57.2634 64.7303 57.7322C64.2614 58.2011 63.998 58.837 63.998 59.5C63.998 60.163 64.2614 60.7989 64.7303 61.2678C65.1991 61.7366 65.835 62 66.498 62C67.1611 62 67.797 61.7366 68.2658 61.2678C68.7347 60.7989 68.998 60.163 68.998 59.5C68.998 58.837 68.7347 58.2011 68.2658 57.7322C67.797 57.2634 67.1611 57 66.498 57ZM54.9629 67C55.5429 69.296 57.5595 71 59.9805 71C62.4015 71 64.417 69.296 64.998 67H54.9629Z" fill="white"/>
</svg>
