<svg width="44" height="41" viewBox="0 0 44 41" fill="none" xmlns="http://www.w3.org/2000/svg">
<path d="M6.68359 0.500123C6.28918 0.505298 5.91267 0.665611 5.63558 0.946352C5.35849 1.22709 5.20313 1.60567 5.20312 2.00012C5.20312 2.00012 5.12377 6.33438 7.2207 10.3575C5.56441 12.5689 4.48677 15.1999 4.01953 18.0216C2.26218 18.9054 0.984375 20.6306 0.984375 22.715C0.984375 24.8887 2.36771 26.6697 4.25 27.5099C6.20437 35.267 13.4108 41.0001 21.998 41.0001C30.5852 41.0001 37.7907 35.267 39.7441 27.5099C41.627 26.6697 43.0117 24.8887 43.0117 22.715C43.0117 20.654 41.7622 18.9447 40.0371 18.0509C38.7389 10.0603 31.9275 3.87191 23.5098 3.20325C23.3618 3.15765 23.2076 3.13525 23.0527 3.13684C22.8208 3.13684 22.6043 3.15027 22.377 3.15442C22.2498 3.15189 22.1258 3.13684 21.998 3.13684C21.8851 3.13588 21.7724 3.14767 21.6621 3.172C16.6843 3.34099 12.6917 4.18782 7.53516 0.752077C7.28324 0.584074 6.98637 0.49624 6.68359 0.500123ZM8.64062 4.58997C13.7048 6.85856 18.2037 6.22264 22.4023 6.15442C27.0401 6.26967 31.1347 8.33962 33.8555 11.5236C32.471 12.0584 30.056 12.9144 27.0879 13.5626C22.5725 14.5487 17.1533 14.8555 13.5059 12.8302C12.2046 12.1078 11.2602 11.1573 10.5625 10.1193C10.4968 9.79981 10.3288 9.51046 10.084 9.29504C9.22181 7.6847 8.84418 5.9618 8.64062 4.58997ZM9.02539 12.9982C9.84742 13.9301 10.8343 14.779 12.0488 15.4532C16.8424 18.1149 22.8877 17.5495 27.7285 16.4923C31.3318 15.7054 34.3177 14.5859 35.6152 14.0626C36.4668 15.6389 37.0273 17.3806 37.2305 19.2208C37.2622 19.5104 37.3775 19.7844 37.5624 20.0095C37.7473 20.2346 37.9936 20.401 38.2715 20.4884C39.3135 20.8166 40.0117 21.6835 40.0117 22.715C40.0117 23.7955 39.2507 24.6953 38.1367 24.9786C37.8626 25.0482 37.6137 25.1939 37.4188 25.3988C37.2239 25.6037 37.0909 25.8596 37.0352 26.1368C35.6839 32.8587 29.5056 38.0001 21.998 38.0001C14.4905 38.0001 8.31116 32.8589 6.95898 26.1368C6.90337 25.8598 6.77065 25.6042 6.57611 25.3992C6.38158 25.1943 6.13313 25.0485 5.85938 24.9786C4.74656 24.6954 3.98438 23.7955 3.98438 22.715C3.98438 21.6829 4.6816 20.8167 5.72461 20.4884C6.00245 20.401 6.24884 20.2346 6.4337 20.0095C6.61856 19.7844 6.73389 19.5104 6.76562 19.2208C7.01618 16.9512 7.8126 14.8406 9.02539 12.9982ZM15.5273 19.0001C14.8787 19.0102 14.26 19.2749 13.8049 19.7372C13.3498 20.1994 13.0947 20.8221 13.0947 21.4708C13.0947 22.1195 13.3498 22.7422 13.8049 23.2045C14.26 23.6667 14.8787 23.9315 15.5273 23.9415C16.176 23.9315 16.7946 23.6667 17.2498 23.2045C17.7049 22.7422 17.96 22.1195 17.96 21.4708C17.96 20.8221 17.7049 20.1994 17.2498 19.7372C16.7946 19.2749 16.176 19.0102 15.5273 19.0001ZM28.498 19.0001C27.835 19.0001 27.1991 19.2635 26.7303 19.7324C26.2614 20.2012 25.998 20.8371 25.998 21.5001C25.998 22.1632 26.2614 22.799 26.7303 23.2679C27.1991 23.7367 27.835 24.0001 28.498 24.0001C29.1611 24.0001 29.797 23.7367 30.2658 23.2679C30.7347 22.799 30.998 22.1632 30.998 21.5001C30.998 20.8371 30.7347 20.2012 30.2658 19.7324C29.797 19.2635 29.1611 19.0001 28.498 19.0001ZM16.9629 29.0001C17.5429 31.2961 19.5595 33.0001 21.9805 33.0001C24.4015 33.0001 26.417 31.2961 26.998 29.0001H16.9629Z" fill="white"/>
</svg>
