<svg width="120" height="120" viewBox="0 0 120 120" fill="none" xmlns="http://www.w3.org/2000/svg">
<circle cx="60" cy="60" r="60" fill="#FEC89A"/>
<path d="M59.998 38.1367C51.002 38.1367 46.2904 43.9114 45.4414 45.0664C43.5914 47.3944 42.3792 50.1239 41.9062 53.0059C40.1262 53.9279 38.9844 55.7198 38.9844 57.7148C38.9844 59.8258 40.2739 61.7103 42.2129 62.5723C42.5379 63.8503 43.0174 65.0611 43.6094 66.2051C42.8984 66.5951 42.3579 67.2548 42.1269 68.0488C41.8399 69.2068 42.088 70.2323 42.875 70.9883C43.85 71.9243 45.3977 72.1854 46.5527 71.6074C46.6337 71.5664 46.7197 71.5561 46.8047 71.5391C46.8127 71.5131 46.8182 71.4801 46.8262 71.4551C46.9982 71.3371 47.1577 71.2047 47.3027 71.0547C50.6247 74.1317 55.122 76 59.998 76C64.877 76 69.3782 74.1279 72.7012 71.0469C72.7662 71.1119 72.8431 71.1637 72.9121 71.2227C73.0911 71.2067 73.2723 71.2206 73.4453 71.3066C74.6003 71.8846 76.148 71.6245 77.123 70.6895C77.835 70.0065 78.1093 69.104 77.9453 68.082C77.9313 68.071 77.9202 68.0598 77.9062 68.0488C77.8862 68.0338 77.8637 68.0238 77.8437 68.0098C77.6157 67.2298 77.0924 66.5785 76.3984 66.1855C76.9854 65.0465 77.4621 63.8413 77.7851 62.5703C79.7231 61.7083 81.0117 59.8239 81.0117 57.7129C81.0117 55.7179 79.8708 53.9279 78.0918 53.0059C76.7008 44.4689 69.079 38.1367 59.998 38.1367ZM59.998 41.1387C65.443 41.1387 70.2556 43.8386 72.9746 47.9766C66.9176 47.7386 63.6216 45.6303 60.9746 43.3613C60.4126 42.8803 59.5844 42.8803 59.0234 43.3613C55.8444 46.0863 51.6355 47.6803 47.0625 47.9453C47.2915 47.5993 47.5291 47.2606 47.7891 46.9336C47.8011 46.9196 47.8435 46.8656 47.8535 46.8516C48.5565 45.8976 52.444 41.1387 59.998 41.1387ZM59.9902 46.4316C64.0782 49.6236 68.3799 51 74.1289 51C74.2419 51 74.351 50.9849 74.457 50.9609C74.832 51.9989 75.1064 53.0847 75.2324 54.2207C75.2974 54.8117 75.7054 55.3083 76.2734 55.4863C77.3144 55.8143 78.0137 56.7089 78.0137 57.7129C78.0137 58.7659 77.2427 59.6965 76.1387 59.9785C75.5797 60.1205 75.1511 60.5707 75.0371 61.1367C73.6541 68.0107 67.33 73 59.998 73C52.666 73 46.3429 68.0107 44.9609 61.1367C44.8469 60.5717 44.4184 60.1205 43.8594 59.9785C42.7554 59.6975 41.9844 58.7659 41.9844 57.7129C41.9844 56.7089 42.6836 55.8143 43.7246 55.4863C44.2916 55.3083 44.7006 54.8117 44.7656 54.2207C44.8876 53.1107 45.1512 52.0255 45.5312 50.9805C45.5912 50.9885 45.6518 51 45.7148 51C51.0628 51 56.0802 49.3856 59.9902 46.4316ZM53.5273 54C52.1633 54 51.0566 55.1067 51.0566 56.4707C51.0566 57.8347 52.1633 58.9414 53.5273 58.9414C54.8903 58.9414 55.998 57.8347 55.998 56.4707C55.998 55.1067 54.8903 54 53.5273 54ZM66.498 54C65.835 54 65.1991 54.2634 64.7303 54.7322C64.2614 55.2011 63.998 55.837 63.998 56.5C63.998 57.163 64.2614 57.7989 64.7303 58.2678C65.1991 58.7366 65.835 59 66.498 59C67.1611 59 67.797 58.7366 68.2658 58.2678C68.7346 57.7989 68.998 57.163 68.998 56.5C68.998 55.837 68.7346 55.2011 68.2658 54.7322C67.797 54.2634 67.1611 54 66.498 54ZM54.9629 64C55.5429 66.296 57.5595 68 59.9805 68C62.4015 68 64.416 66.296 64.998 64H54.9629ZM79.8144 69.9062C79.5944 70.7393 79.1658 71.5018 78.5078 72.1328C78.3648 72.2708 78.2019 72.3771 78.0449 72.4961C79.0119 73.8781 79.6064 75.4602 79.8574 76.9102L76.1055 76.9453C76.3425 75.6003 76.4389 74.4118 76.4219 73.3398C75.8919 73.5078 75.3459 73.6152 74.7949 73.6152C74.3319 73.6152 73.8718 73.5478 73.4258 73.4238C73.4398 74.5438 73.2879 76.0502 72.7969 78.1152C72.6909 78.5642 72.796 79.0374 73.084 79.3984C73.369 79.7554 73.7999 79.9629 74.2558 79.9629H74.2695L81.5117 79.8945C81.9097 79.8905 82.2893 79.7283 82.5683 79.4453C82.8463 79.1613 83.002 78.7789 82.998 78.3809C82.976 75.9709 82.0764 72.6042 79.8144 69.9062ZM40.1309 69.9727C37.8869 72.6657 36.9946 76.017 36.9726 78.418C36.9656 79.246 37.631 79.9236 38.459 79.9316L45.6992 80H45.7148C46.1708 80 46.6027 79.7915 46.8867 79.4355C47.1747 79.0745 47.2808 78.6033 47.1738 78.1543C46.7228 76.2563 46.5521 74.8205 46.5391 73.7305C46.1031 73.8475 45.6561 73.9121 45.2051 73.9121C44.6441 73.9121 44.0859 73.8029 43.5469 73.6289C43.5499 74.6359 43.6462 75.7424 43.8652 76.9824L40.1133 76.9453C40.3553 75.5493 40.9192 74.0354 41.8242 72.6914C41.7142 72.6024 41.5942 72.5277 41.4902 72.4297C40.7732 71.7417 40.3259 70.8967 40.1309 69.9727Z" fill="white"/>
</svg>
