<svg width="80" height="80" viewBox="0 0 80 80" fill="none" xmlns="http://www.w3.org/2000/svg">
<circle cx="40" cy="40" r="40" fill="#FEC89A"/>
<path d="M39.1667 21.6667C35.3211 21.6667 32.1331 24.5951 31.7155 28.3333H30C28.0734 28.3333 26.4696 29.7777 26.2696 31.6943L24.1862 51.6943C24.0762 52.7485 24.4202 53.8056 25.1302 54.5947C25.8402 55.3822 26.8567 55.8333 27.9167 55.8333H52.0834C53.1434 55.8333 54.1598 55.3822 54.8698 54.5947C55.5798 53.8064 55.9222 52.7485 55.8122 51.6943L53.7305 31.6943C53.5305 29.7777 51.9267 28.3333 50 28.3333H48.2943C48.3201 28.6083 48.3334 28.8867 48.3334 29.1667V30.8333H50C50.6425 30.8333 51.1768 31.3156 51.2435 31.9548L53.3269 51.9548C53.3635 52.3064 53.2486 52.6583 53.0127 52.9199C52.7761 53.1824 52.4367 53.3333 52.0834 53.3333H27.9167C27.5634 53.3333 27.2248 53.1832 26.989 52.9215C26.7523 52.659 26.6365 52.3064 26.6732 51.9548L28.7565 31.9548C28.8232 31.3156 29.3575 30.8333 30 30.8333H31.6667V33.75C31.6644 33.9156 31.695 34.0801 31.7567 34.2338C31.8185 34.3875 31.9102 34.5274 32.0265 34.6454C32.1428 34.7633 32.2814 34.857 32.4342 34.9209C32.587 34.9849 32.751 35.0178 32.9167 35.0178C33.0823 35.0178 33.2464 34.9849 33.3992 34.9209C33.552 34.857 33.6906 34.7633 33.8069 34.6454C33.9232 34.5274 34.0149 34.3875 34.0767 34.2338C34.1384 34.0801 34.169 33.9156 34.1667 33.75V29.1667C34.1667 26.3906 36.3906 24.1667 39.1667 24.1667C41.6582 24.1667 43.7 25.9592 44.0935 28.3333H35.944C35.874 28.6 35.8334 28.8783 35.8334 29.1667V30.8333H44.1667V33.75C44.1644 33.9156 44.195 34.0801 44.2567 34.2338C44.3185 34.3875 44.4102 34.5274 44.5265 34.6454C44.6428 34.7633 44.7814 34.857 44.9342 34.9209C45.087 34.9849 45.251 35.0178 45.4167 35.0178C45.5824 35.0178 45.7464 34.9849 45.8992 34.9209C46.052 34.857 46.1906 34.7633 46.3069 34.6454C46.4232 34.5274 46.5149 34.3875 46.5767 34.2338C46.6384 34.0801 46.669 33.9156 46.6667 33.75V29.1667C46.6667 25.0394 43.294 21.6667 39.1667 21.6667Z" fill="white"/>
</svg>
