<svg width="189" height="25" viewBox="0 0 189 25" fill="none" xmlns="http://www.w3.org/2000/svg">
<g filter="url(#filter0_i_184_3108)">
<path d="M12.3594 6.03125L6.8125 24H0.921875L9.28125 1.25H13.0156L12.3594 6.03125ZM16.9531 24L11.3906 6.03125L10.6719 1.25H14.4531L22.8594 24H16.9531ZM16.7344 15.5156V19.75H5.0625V15.5156H16.7344ZM54.3625 19.7812V24H37.8937V19.7812H54.3625ZM54.2531 4.0625L40.6125 24H36.6437V21.1094L50.4406 1.25H54.2531V4.0625ZM52.4875 1.25V5.48438H36.5656V1.25H52.4875ZM82.1937 16.2969H87.6625C87.5896 17.8802 87.1625 19.276 86.3812 20.4844C85.6 21.6927 84.5167 22.6354 83.1312 23.3125C81.7562 23.9792 80.1312 24.3125 78.2562 24.3125C76.7354 24.3125 75.376 24.0573 74.1781 23.5469C72.9906 23.0365 71.9802 22.3021 71.1469 21.3438C70.324 20.3854 69.6937 19.224 69.2562 17.8594C68.8292 16.4948 68.6156 14.9583 68.6156 13.25V12.0156C68.6156 10.3073 68.8396 8.77083 69.2875 7.40625C69.7458 6.03125 70.3917 4.86458 71.225 3.90625C72.0687 2.9375 73.0792 2.19792 74.2562 1.6875C75.4333 1.17708 76.7406 0.921875 78.1781 0.921875C80.1573 0.921875 81.8292 1.27604 83.1937 1.98438C84.5583 2.69271 85.6156 3.66667 86.3656 4.90625C87.1156 6.13542 87.5583 7.53646 87.6937 9.10938H82.225C82.2042 8.25521 82.0583 7.54167 81.7875 6.96875C81.5167 6.38542 81.0896 5.94792 80.5062 5.65625C79.9229 5.36458 79.1469 5.21875 78.1781 5.21875C77.501 5.21875 76.9125 5.34375 76.4125 5.59375C75.9125 5.84375 75.4958 6.23958 75.1625 6.78125C74.8292 7.32292 74.5792 8.02604 74.4125 8.89062C74.2562 9.74479 74.1781 10.776 74.1781 11.9844V13.25C74.1781 14.4583 74.251 15.4896 74.3969 16.3438C74.5427 17.1979 74.7771 17.8958 75.1 18.4375C75.4229 18.9792 75.8396 19.3802 76.35 19.6406C76.8708 19.8906 77.5062 20.0156 78.2562 20.0156C79.0896 20.0156 79.7927 19.8854 80.3656 19.625C80.9385 19.3542 81.3812 18.9479 81.6937 18.4062C82.0062 17.8542 82.1729 17.151 82.1937 16.2969ZM112.697 6.03125L107.15 24H101.259L109.619 1.25H113.353L112.697 6.03125ZM117.291 24L111.728 6.03125L111.009 1.25H114.791L123.197 24H117.291ZM117.072 15.5156V19.75H105.4V15.5156H117.072ZM137.669 1.25H146.622C148.372 1.25 149.893 1.51042 151.184 2.03125C152.476 2.55208 153.471 3.32292 154.169 4.34375C154.877 5.36458 155.231 6.625 155.231 8.125C155.231 9.42708 155.028 10.5156 154.622 11.3906C154.216 12.2656 153.648 12.9896 152.919 13.5625C152.2 14.125 151.361 14.5885 150.403 14.9531L148.606 15.9688H141.091L141.059 11.7344H146.622C147.32 11.7344 147.898 11.6094 148.356 11.3594C148.815 11.1094 149.158 10.7552 149.387 10.2969C149.627 9.82812 149.747 9.27083 149.747 8.625C149.747 7.96875 149.627 7.40625 149.387 6.9375C149.148 6.46875 148.794 6.10938 148.325 5.85938C147.867 5.60938 147.299 5.48438 146.622 5.48438H143.153V24H137.669V1.25ZM150.122 24L145.091 13.9375L150.903 13.9062L155.997 23.7656V24H150.122ZM181.578 1.25V24H176.094V1.25H181.578ZM188.422 1.25V5.48438H169.406V1.25H188.422Z" fill="#890304"/>
</g>
<defs>
<filter id="filter0_i_184_3108" x="0.921875" y="0.921875" width="187.5" height="27.3906" filterUnits="userSpaceOnUse" color-interpolation-filters="sRGB">
<feFlood flood-opacity="0" result="BackgroundImageFix"/>
<feBlend mode="normal" in="SourceGraphic" in2="BackgroundImageFix" result="shape"/>
<feColorMatrix in="SourceAlpha" type="matrix" values="0 0 0 0 0 0 0 0 0 0 0 0 0 0 0 0 0 0 127 0" result="hardAlpha"/>
<feOffset dy="4"/>
<feGaussianBlur stdDeviation="2"/>
<feComposite in2="hardAlpha" operator="arithmetic" k2="-1" k3="1"/>
<feColorMatrix type="matrix" values="0 0 0 0 1 0 0 0 0 1 0 0 0 0 1 0 0 0 0.5 0"/>
<feBlend mode="normal" in2="shape" result="effect1_innerShadow_184_3108"/>
</filter>
</defs>
</svg>
