<svg width="48" height="48" viewBox="0 0 48 48" fill="none" xmlns="http://www.w3.org/2000/svg">
<path d="M23.9981 2.13672C15.0021 2.13672 10.2905 7.91141 9.44146 9.06641C7.59146 11.3944 6.3793 14.1239 5.9063 17.0059C4.1263 17.9279 2.98443 19.7198 2.98443 21.7148C2.98443 23.8258 4.27395 25.7103 6.21294 26.5723C6.53795 27.8503 7.01743 29.0611 7.60943 30.2051C6.89843 30.5951 6.35801 31.2548 6.12701 32.0488C5.84001 33.2068 6.08805 34.2323 6.87505 34.9883C7.85005 35.9243 9.39779 36.1854 10.5528 35.6074C10.6338 35.5664 10.7197 35.5561 10.8047 35.5391C10.8127 35.5131 10.8182 35.4801 10.8262 35.4551C10.9982 35.3371 11.1578 35.2047 11.3028 35.0547C14.6248 38.1317 19.1221 40 23.9981 40C28.8771 40 33.3782 38.1279 36.7012 35.0469C36.7662 35.1119 36.8432 35.1637 36.9122 35.2227C37.0912 35.2067 37.2724 35.2206 37.4454 35.3066C38.6004 35.8846 40.1481 35.6245 41.1231 34.6895C41.8351 34.0065 42.1094 33.104 41.9454 32.082C41.9314 32.071 41.9203 32.0598 41.9063 32.0488C41.8863 32.0338 41.8638 32.0238 41.8438 32.0098C41.6158 31.2298 41.0925 30.5785 40.3985 30.1855C40.9855 29.0465 41.4622 27.8413 41.7852 26.5703C43.7232 25.7083 45.0118 23.8239 45.0118 21.7129C45.0118 19.7179 43.8708 17.9279 42.0918 17.0059C40.7008 8.46886 33.0791 2.13672 23.9981 2.13672ZM23.9981 5.13867C29.4431 5.13867 34.2557 7.83856 36.9747 11.9766C30.9177 11.7386 27.6217 9.63033 24.9747 7.36133C24.4127 6.88033 23.5845 6.88033 23.0235 7.36133C19.8445 10.0863 15.6356 11.6803 11.0626 11.9453C11.2916 11.5993 11.5291 11.2606 11.7891 10.9336C11.8011 10.9196 11.8436 10.8656 11.8536 10.8516C12.5566 9.89756 16.4441 5.13867 23.9981 5.13867ZM23.9903 10.4316C28.0783 13.6236 32.38 15 38.129 15C38.242 15 38.3511 14.9849 38.4571 14.9609C38.8321 15.9989 39.1065 17.0847 39.2325 18.2207C39.2975 18.8117 39.7055 19.3083 40.2735 19.4863C41.3145 19.8143 42.0137 20.7089 42.0137 21.7129C42.0137 22.7659 41.2427 23.6965 40.1387 23.9785C39.5797 24.1205 39.1512 24.5707 39.0372 25.1367C37.6542 32.0107 31.3301 37 23.9981 37C16.6661 37 10.343 32.0107 8.96099 25.1367C8.84699 24.5717 8.41843 24.1205 7.85943 23.9785C6.75543 23.6975 5.98443 22.7659 5.98443 21.7129C5.98443 20.7089 6.68366 19.8143 7.72466 19.4863C8.29166 19.3083 8.70068 18.8117 8.76568 18.2207C8.88768 17.1107 9.1513 16.0255 9.5313 14.9805C9.5913 14.9885 9.6519 15 9.7149 15C15.0629 15 20.0803 13.3856 23.9903 10.4316ZM17.5274 18C16.1634 18 15.0567 19.1067 15.0567 20.4707C15.0567 21.8347 16.1634 22.9414 17.5274 22.9414C18.8904 22.9414 19.9981 21.8347 19.9981 20.4707C19.9981 19.1067 18.8904 18 17.5274 18ZM30.4981 18C29.8351 18 29.1992 18.2634 28.7303 18.7322C28.2615 19.2011 27.9981 19.837 27.9981 20.5C27.9981 21.163 28.2615 21.7989 28.7303 22.2678C29.1992 22.7366 29.8351 23 30.4981 23C31.1611 23 31.797 22.7366 32.2659 22.2678C32.7347 21.7989 32.9981 21.163 32.9981 20.5C32.9981 19.837 32.7347 19.2011 32.2659 18.7322C31.797 18.2634 31.1611 18 30.4981 18ZM18.9629 28C19.5429 30.296 21.5595 32 23.9805 32C26.4015 32 28.4161 30.296 28.9981 28H18.9629ZM43.8145 33.9062C43.5945 34.7393 43.1659 35.5018 42.5079 36.1328C42.3649 36.2708 42.202 36.3771 42.045 36.4961C43.012 37.8781 43.6065 39.4602 43.8575 40.9102L40.1055 40.9453C40.3425 39.6003 40.4389 38.4118 40.4219 37.3398C39.8919 37.5078 39.346 37.6152 38.795 37.6152C38.332 37.6152 37.8718 37.5478 37.4258 37.4238C37.4398 38.5438 37.2879 40.0502 36.7969 42.1152C36.6909 42.5642 36.796 43.0374 37.084 43.3984C37.369 43.7554 37.7999 43.9629 38.2559 43.9629H38.2696L45.5118 43.8945C45.9098 43.8905 46.2894 43.7283 46.5684 43.4453C46.8464 43.1613 47.0021 42.7789 46.9981 42.3809C46.9761 39.9709 46.0765 36.6042 43.8145 33.9062ZM4.13091 33.9727C1.88691 36.6657 0.994711 40.017 0.972711 42.418C0.965711 43.246 1.63104 43.9236 2.45904 43.9316L9.69927 44H9.7149C10.1709 44 10.6028 43.7915 10.8868 43.4355C11.1748 43.0745 11.2809 42.6033 11.1739 42.1543C10.7229 40.2563 10.5521 38.8205 10.5391 37.7305C10.1031 37.8475 9.65613 37.9121 9.20513 37.9121C8.64413 37.9121 8.08593 37.8029 7.54693 37.6289C7.54993 38.6359 7.64629 39.7424 7.86529 40.9824L4.11334 40.9453C4.35534 39.5493 4.91927 38.0354 5.82427 36.6914C5.71427 36.6024 5.59429 36.5277 5.49029 36.4297C4.77329 35.7417 4.32591 34.8967 4.13091 33.9727Z" fill="#FEC89A"/>
</svg>
