<svg width="20" height="21" viewBox="0 0 20 21" fill="none" xmlns="http://www.w3.org/2000/svg">
<path d="M9.49988 0C7.19253 0 5.27973 1.75704 5.02918 4H3.99988C2.84388 4 1.8816 4.8666 1.7616 6.0166L0.5116 18.0166C0.4456 18.6491 0.652007 19.2833 1.07801 19.7568C1.50401 20.2293 2.11388 20.5 2.74988 20.5H17.2499C17.8859 20.5 18.4958 20.2293 18.9218 19.7568C19.3478 19.2838 19.5532 18.6491 19.4872 18.0166L18.2382 6.0166C18.1182 4.8666 17.1559 4 15.9999 4H14.9764C14.9919 4.165 14.9999 4.332 14.9999 4.5V5.5H15.9999C16.3854 5.5 16.706 5.78935 16.746 6.17285L17.996 18.1729C18.018 18.3839 17.949 18.595 17.8075 18.752C17.6655 18.9095 17.4619 19 17.2499 19H2.74988C2.53788 19 2.33474 18.9099 2.19324 18.7529C2.05124 18.5954 1.98179 18.3839 2.00379 18.1729L3.25379 6.17285C3.29379 5.78935 3.61438 5.5 3.99988 5.5H4.99988V7.25C4.99848 7.34938 5.01684 7.44806 5.0539 7.54028C5.09096 7.63251 5.14598 7.71645 5.21576 7.78723C5.28554 7.858 5.3687 7.91421 5.46039 7.95257C5.55209 7.99093 5.65049 8.01068 5.74988 8.01068C5.84928 8.01068 5.94768 7.99093 6.03937 7.95257C6.13106 7.91421 6.21422 7.858 6.284 7.78723C6.35378 7.71645 6.40881 7.63251 6.44587 7.54028C6.48293 7.44806 6.50129 7.34938 6.49988 7.25V4.5C6.49988 2.83436 7.83424 1.5 9.49988 1.5C10.9948 1.5 12.2199 2.57554 12.4559 4H7.56629C7.52429 4.16 7.49988 4.327 7.49988 4.5V5.5H12.4999V7.25C12.4985 7.34938 12.5168 7.44806 12.5539 7.54028C12.591 7.63251 12.646 7.71645 12.7158 7.78723C12.7855 7.858 12.8687 7.91421 12.9604 7.95257C13.0521 7.99093 13.1505 8.01068 13.2499 8.01068C13.3493 8.01068 13.4477 7.99093 13.5394 7.95257C13.6311 7.91421 13.7142 7.858 13.784 7.78723C13.8538 7.71645 13.9088 7.63251 13.9459 7.54028C13.9829 7.44806 14.0013 7.34938 13.9999 7.25V4.5C13.9999 2.02364 11.9762 0 9.49988 0Z" fill="black"/>
</svg>
